<svg xmlns="http://www.w3.org/2000/svg" width="340.414" height="517.402" viewBox="0 0 340.414 517.402">
  <g id="Group_250" data-name="Group 250" transform="translate(-463.793 -152.316)">
    <g id="Rectangle_62" data-name="Rectangle 62" transform="translate(482 225.158)" fill="#fff" stroke="#707070" stroke-width="1">
      <rect width="303" height="373" stroke="none"/>
      <rect x="0.5" y="0.5" width="302" height="372" fill="none"/>
    </g>
    <g id="Group_105" data-name="Group 105" transform="translate(59.265 1261.154)">
      <path id="path668" d="M483.47-909.45a20.614,20.614,0,0,0-4.236.412c-6.14,1.283-10.265,6.731-10.265,13.558s4.125,12.277,10.265,13.56c5.571,1.159,11.812-.34,17.185-1.96,5.549-1.675,12.531-5.493,21.295-11.648-8.53-5.974-15.688-9.858-21.295-11.55A46.121,46.121,0,0,0,483.47-909.45Zm0,31.716a24.619,24.619,0,0,1-5.008-.491c-7.936-1.66-13.268-8.592-13.268-17.255s5.332-15.593,13.268-17.253c6.391-1.333,13.215.282,19.046,2.042,6.565,1.982,14.6,6.442,24.562,13.631a1.892,1.892,0,0,1,.782,1.529,1.891,1.891,0,0,1-.782,1.532c-6.462,4.661-16.035,11.156-24.562,13.731a49.54,49.54,0,0,1-14.038,2.533" transform="translate(53.782 258.491)" fill="#1e1e1e"/>
      <path id="path670" d="M498.9-895.528c8.766,6.155,15.748,9.973,21.3,11.648,5.373,1.623,11.616,3.124,17.182,1.96,6.14-1.283,10.268-6.731,10.268-13.56s-4.128-12.275-10.268-13.558c-5.571-1.17-11.809.337-17.182,1.959C514.589-905.386,507.433-901.5,498.9-895.528Zm34.244,17.793a49.549,49.549,0,0,1-14.038-2.533c-8.524-2.576-18.1-9.07-24.562-13.731a1.886,1.886,0,0,1-.782-1.532,1.884,1.884,0,0,1,.782-1.529c9.963-7.189,18-11.649,24.562-13.631,5.831-1.758,12.647-3.373,19.046-2.043,7.936,1.66,13.268,8.592,13.268,17.253s-5.332,15.595-13.268,17.255a24.645,24.645,0,0,1-5.008.491" transform="translate(79.104 258.491)" fill="#1e1e1e"/>
      <path id="path672" d="M603.356-858.245a14.3,14.3,0,0,0-7.224,9.976,4.2,4.2,0,0,0,.863,3.683c1.426,1.512,4.186,1.152,5.7-.184a8.256,8.256,0,0,0,2.286-6.822A19.885,19.885,0,0,0,603.356-858.245ZM483.841-856.27c-5.649,0-12.041,1.705-13.761,6.336a9.162,9.162,0,0,0,.513,7.765,11.481,11.481,0,0,0,7.538,5.539c7.166,1.615,14.622.058,22.153-4.636q2.2-1.369,4.367-2.772c-5.667-6.2-11.91-11.108-16.551-11.89a25.9,25.9,0,0,0-4.258-.342Zm36.679,36.117a1.883,1.883,0,0,1-1.826-1.419c-1.391-5.441-6-12.967-11.535-19.6q-2.426,1.57-4.877,3.1c-8.406,5.239-16.807,6.962-24.98,5.114a15.093,15.093,0,0,1-10.026-7.42,13.014,13.014,0,0,1-.734-10.876c3.119-8.386,14.974-9.616,22.188-8.4,5.856.991,12.941,6.615,19.129,13.527q1.57-1.026,3.134-2.055l2.447-1.607c2.073-1.356,4.16-2.757,6.273-4.171,14.536-9.739,29.57-19.813,46.825-21.9,10.3-1.243,24.582.131,33.824,7.732a23.556,23.556,0,0,1,4.57,4.963,52.94,52.94,0,0,1,12.77-2.885c11.425-1.4,22.7-4.155,27.827-14.818,5.237-10.9,5.209-24.959-.065-34.993a1.888,1.888,0,0,1,.284-2.158,1.891,1.891,0,0,1,2.131-.453c.174.073,17.577,7.385,28.926-.1,6.734-4.442,10.149-13.309,10.149-26.356a1.887,1.887,0,0,1,1.886-1.886,1.887,1.887,0,0,1,1.886,1.886c0,14.4-3.989,24.333-11.857,29.515-9.45,6.223-21.831,3.823-28.242,1.9a45.547,45.547,0,0,1-1.7,34.276c-5.909,12.3-18.282,15.4-30.77,16.931a50.7,50.7,0,0,0-11.372,2.46,23.686,23.686,0,0,1,1.957,7.974,12.016,12.016,0,0,1-3.554,9.933c-3.22,2.837-8.228,2.81-10.939-.058a8.014,8.014,0,0,1-1.816-7.023,17.814,17.814,0,0,1,9.03-12.5,19.909,19.909,0,0,0-3.5-3.693c-8.331-6.854-21.891-8-30.974-6.9-16.357,1.982-31.009,11.8-45.178,21.292-2.123,1.421-4.223,2.83-6.3,4.193l-2.445,1.6q-1.366.9-2.732,1.794c5.9,7.191,10.607,15.213,12.016,20.729a1.886,1.886,0,0,1-1.361,2.294,1.874,1.874,0,0,1-.468.058" transform="translate(54.216 228.716)" fill="#1e1e1e"/>
      <path id="path674" d="M491.9-858.245a19.816,19.816,0,0,0-1.625,6.653,8.249,8.249,0,0,0,2.286,6.824c1.514,1.333,4.276,1.693,5.7.181a4.2,4.2,0,0,0,.863-3.683A14.3,14.3,0,0,0,491.9-858.245Zm98.7,14.207q2.177,1.4,4.369,2.772c7.528,4.694,14.981,6.251,22.15,4.636a11.48,11.48,0,0,0,7.541-5.539,9.162,9.162,0,0,0,.513-7.765c-2.183-5.863-11.857-7.038-18.02-5.994-4.643.782-10.886,5.692-16.553,11.89Zm-15.867,23.885a1.867,1.867,0,0,1-.468-.058,1.885,1.885,0,0,1-1.361-2.294c1.409-5.516,6.12-13.537,12.016-20.729q-1.347-.883-2.694-1.768l-2.483-1.628c-2.08-1.363-4.178-2.769-6.3-4.191-14.171-9.5-28.826-19.312-45.185-21.295-9.08-1.1-22.643.045-30.971,6.9a19.935,19.935,0,0,0-3.5,3.693,17.817,17.817,0,0,1,9.033,12.5A8.011,8.011,0,0,1,501-842c-2.706,2.87-7.714,2.893-10.934.058a12,12,0,0,1-3.557-9.933,23.623,23.623,0,0,1,1.957-7.974A50.689,50.689,0,0,0,477.1-862.3c-12.489-1.527-24.861-4.631-30.77-16.931a45.547,45.547,0,0,1-1.7-34.276c-6.414,1.927-18.789,4.326-28.242-1.9-7.87-5.182-11.86-15.112-11.86-29.515a1.887,1.887,0,0,1,1.886-1.886,1.886,1.886,0,0,1,1.887,1.886c0,13.047,3.416,21.914,10.149,26.356,11.347,7.485,28.755.171,28.929.1a1.892,1.892,0,0,1,2.13.453,1.892,1.892,0,0,1,.284,2.158c-5.275,10.031-5.3,24.094-.065,34.993,5.124,10.662,16.4,13.422,27.827,14.818a53.007,53.007,0,0,1,12.768,2.885,23.639,23.639,0,0,1,4.573-4.963c9.241-7.6,23.531-8.98,33.824-7.732,17.255,2.09,32.289,12.164,46.83,21.906,2.11,1.414,4.2,2.812,6.266,4.168l2.485,1.63q1.551,1.019,3.1,2.032c6.188-6.912,13.271-12.536,19.129-13.527,7.211-1.21,19.069.018,22.185,8.4a13.014,13.014,0,0,1-.732,10.876,15.092,15.092,0,0,1-10.029,7.42c-8.172,1.846-16.573.123-24.977-5.114q-2.456-1.532-4.88-3.1c-5.536,6.63-10.142,14.156-11.533,19.6a1.886,1.886,0,0,1-1.826,1.419" transform="translate(0 228.716)" fill="#1e1e1e"/>
      <path id="path676" d="M483.47-1090.322a20.605,20.605,0,0,0-4.236.413c-6.14,1.283-10.265,6.733-10.265,13.557s4.125,12.277,10.265,13.56c5.566,1.165,11.812-.34,17.185-1.959,5.609-1.7,12.765-5.576,21.295-11.55-8.764-6.155-15.746-9.973-21.295-11.649A46.13,46.13,0,0,0,483.47-1090.322Zm0,31.716a24.458,24.458,0,0,1-5.008-.493c-7.936-1.658-13.268-8.59-13.268-17.253s5.332-15.593,13.268-17.25c6.391-1.343,13.215.279,19.046,2.04,8.527,2.576,18.1,9.07,24.562,13.731a1.892,1.892,0,0,1,.782,1.53,1.892,1.892,0,0,1-.782,1.532c-9.963,7.189-18,11.646-24.562,13.628a49.472,49.472,0,0,1-14.038,2.535" transform="translate(53.782 13.068)" fill="#1e1e1e"/>
      <path id="path678" d="M498.9-1076.3c8.535,5.974,15.691,9.855,21.3,11.55,5.373,1.62,11.613,3.126,17.182,1.959,6.14-1.283,10.268-6.731,10.268-13.56s-4.128-12.275-10.268-13.557c-5.576-1.172-11.812.339-17.182,1.959C514.647-1086.275,507.665-1082.457,498.9-1076.3Zm34.244,17.7a49.456,49.456,0,0,1-14.038-2.535c-6.562-1.982-14.6-6.439-24.562-13.628a1.886,1.886,0,0,1-.782-1.532,1.885,1.885,0,0,1,.782-1.53c6.462-4.661,16.038-11.156,24.562-13.731,5.831-1.761,12.647-3.375,19.046-2.043,7.936,1.66,13.268,8.593,13.268,17.253s-5.332,15.595-13.268,17.253a24.475,24.475,0,0,1-5.008.493" transform="translate(79.104 13.069)" fill="#1e1e1e"/>
      <path id="path680" d="M483.67-1092.975a25.1,25.1,0,0,0-5.539.619,11.481,11.481,0,0,0-7.538,5.539,9.157,9.157,0,0,0-.513,7.762c2.181,5.866,11.857,7.045,18.02,6,4.641-.785,10.884-5.692,16.551-11.89-1.449-.933-2.9-1.862-4.367-2.772-5.609-3.5-11.176-5.254-16.614-5.254Zm115.846,7.589a3.4,3.4,0,0,0-2.52.986,4.2,4.2,0,0,0-.863,3.68,14.307,14.307,0,0,0,7.224,9.978,19.882,19.882,0,0,0,1.625-6.653,8.257,8.257,0,0,0-2.289-6.824A4.936,4.936,0,0,0,599.516-1085.386Zm89.324,367.53c-1.041,0-1.852,4.208-1.852,3.167L686.953-984.4c0-13.019-3.4-21.848-10.109-26.24-11.339-7.43-28.783.041-28.956.116a1.879,1.879,0,0,1-2.135-.443,1.889,1.889,0,0,1-.289-2.163c5.275-10.034,5.3-24.1.065-34.993-5.124-10.662-16.4-13.424-27.827-14.818a53.055,53.055,0,0,1-12.77-2.885,23.55,23.55,0,0,1-4.57,4.96c-9.241,7.6-23.526,8.98-33.824,7.734-17.255-2.09-32.289-12.164-46.825-21.9-2.113-1.414-4.2-2.815-6.273-4.171l-2.447-1.607q-1.566-1.026-3.134-2.055c-6.188,6.912-13.273,12.536-19.129,13.525-7.206,1.215-19.069-.018-22.188-8.4a13.014,13.014,0,0,1,.734-10.876,15.093,15.093,0,0,1,10.026-7.42c8.167-1.851,16.573-.123,24.977,5.114q2.456,1.528,4.88,3.1c5.539-6.633,10.144-14.156,11.535-19.6a1.88,1.88,0,0,1,2.294-1.361,1.886,1.886,0,0,1,1.361,2.294c-1.409,5.516-6.12,13.538-12.016,20.729l2.732,1.791,2.445,1.6c2.08,1.363,4.18,2.771,6.3,4.19,14.169,9.5,28.821,19.313,45.178,21.292,9.078,1.1,22.643-.045,30.974-6.9a19.915,19.915,0,0,0,3.5-3.693,17.814,17.814,0,0,1-9.03-12.5,8.012,8.012,0,0,1,1.816-7.023c2.711-2.867,7.719-2.893,10.937-.06a12.014,12.014,0,0,1,3.557,9.933,23.658,23.658,0,0,1-1.957,7.974,50.441,50.441,0,0,0,11.372,2.46c12.488,1.527,24.861,4.633,30.77,16.931a45.547,45.547,0,0,1,1.71,34.243c6.427-1.979,18.81-4.467,28.26,1.711,7.848,5.129,11.827,15.021,11.827,29.4l-.018,269.706c0,1.042-.827-3.167-1.868-3.167" transform="translate(54.216 0)" fill="#1e1e1e"/>
      <path id="path682" d="M590.6-1084.948c5.667,6.2,11.91,11.1,16.553,11.89,6.168,1.047,15.839-.131,18.02-6a9.157,9.157,0,0,0-.513-7.762,11.48,11.48,0,0,0-7.541-5.539c-7.179-1.62-14.624-.06-22.15,4.636-1.464.91-2.918,1.839-4.369,2.772Zm-94.863-.438a4.951,4.951,0,0,0-3.179,1.167,8.248,8.248,0,0,0-2.286,6.824,19.822,19.822,0,0,0,1.625,6.653,14.307,14.307,0,0,0,7.224-9.978,4.2,4.2,0,0,0-.863-3.682A3.408,3.408,0,0,0,495.742-1085.386ZM406.415-717.917c-1.041,0-1.883,4.468-1.883,3.427l0-269.9c0-14.383,3.979-24.275,11.83-29.4,9.445-6.172,21.833-3.687,28.257-1.71a45.572,45.572,0,0,1,1.71-34.244c5.911-12.3,18.284-15.4,30.772-16.931a50.471,50.471,0,0,0,11.372-2.46,23.593,23.593,0,0,1-1.957-7.974,12,12,0,0,1,3.554-9.93c3.222-2.838,8.23-2.807,10.937.058a8.006,8.006,0,0,1,1.819,7.023,17.822,17.822,0,0,1-9.033,12.5,19.92,19.92,0,0,0,3.5,3.693c8.331,6.854,21.9,8,30.971,6.9,16.36-1.98,31.014-11.8,45.185-21.293,2.12-1.421,4.218-2.829,6.3-4.19l2.483-1.627q1.347-.886,2.694-1.768c-5.9-7.191-10.607-15.213-12.016-20.729a1.884,1.884,0,0,1,1.361-2.294,1.879,1.879,0,0,1,2.294,1.361c1.391,5.441,6,12.964,11.533,19.6q2.43-1.57,4.88-3.1c8.406-5.24,16.815-6.96,24.977-5.114a15.093,15.093,0,0,1,10.029,7.42,13.014,13.014,0,0,1,.732,10.876c-3.116,8.384-14.969,9.616-22.185,8.4-5.858-.989-12.941-6.613-19.129-13.525q-1.551,1.011-3.1,2.03l-2.488,1.633c-2.068,1.353-4.153,2.754-6.263,4.168-14.541,9.742-29.575,19.816-46.83,21.906-10.29,1.245-24.582-.131-33.824-7.735a23.617,23.617,0,0,1-4.573-4.96,53,53,0,0,1-12.768,2.885c-11.425,1.394-22.7,4.155-27.829,14.818-5.234,10.9-5.207,24.962.068,34.993a1.888,1.888,0,0,1-.289,2.163,1.879,1.879,0,0,1-2.135.443c-.173-.075-17.617-7.541-28.959-.116-6.706,4.392-10.109,13.221-10.109,26.24l.03,269.9c0,1.041-.873-3.427-1.917-3.427" transform="translate(0 0)" fill="#1e1e1e"/>
      <path id="path684" d="M416.478-698.487H715.793l-.351-370.185h-298.5Zm300.655,2.44H415.764a2.218,2.218,0,0,1-1.886-2.44v-370.185a2.218,2.218,0,0,1,1.886-2.44H717.133a2.218,2.218,0,0,1,1.886,2.44v370.185a2.218,2.218,0,0,1-1.886,2.44" transform="translate(8.288 33.444)" fill="#1e1e1e"/>
    </g>
  </g>
</svg>
