<svg xmlns="http://www.w3.org/2000/svg" width="184.002" height="23.62" viewBox="0 0 184.002 23.62"><g transform="translate(-817.327 -951.238)"><path d="M853.269-159.745a.607.607,0,0,1-.4-.146.64.64,0,0,1-.1-.9,25.072,25.072,0,0,1,6.278-5.3,23.281,23.281,0,0,1-6.246-5.591.644.644,0,0,1,.135-.9.644.644,0,0,1,.9.134,21.746,21.746,0,0,0,6.859,5.784.646.646,0,0,1,.362.583.65.65,0,0,1-.362.576,23.545,23.545,0,0,0-6.925,5.528.627.627,0,0,1-.5.241" transform="translate(124.171 1129.143)" fill="#40ada7"/><path d="M838.9-168.71c5.947,1.866,10.435,7.343,11.874,9.277A30.014,30.014,0,0,1,865.8-168.77a31.638,31.638,0,0,1-15.014-9.587C849.354-176.35,844.859-170.649,838.9-168.71Zm11.819,10.954h-.04a.645.645,0,0,1-.5-.284c-.067-.1-6.834-10.008-15.277-10.008a.647.647,0,0,1-.645-.645.645.645,0,0,1,.645-.648c8.446,0,15.2-10.305,15.271-10.409a.642.642,0,0,1,.5-.293.644.644,0,0,1,.531.219c8.827,10.14,18.7,10.481,18.8,10.483h0a.644.644,0,0,1,.63.657.672.672,0,0,1-.652.636h-.02c-.445,0-10.1.129-18.758,10.068a.628.628,0,0,1-.486.224" transform="translate(130.691 1131.745)" fill="#40ada7"/><path d="M803.917-162.152H747.643A.647.647,0,0,1,747-162.8a.645.645,0,0,1,.645-.648h56.273a.645.645,0,0,1,.645.648.647.647,0,0,1-.645.645" transform="translate(161.685 1125.85)" fill="#40ada7"/><path d="M817.664-157.142a3.9,3.9,0,0,1-1.092-.155,3.683,3.683,0,0,1-2.581-4.05,2.655,2.655,0,0,1,1.847-2.141,2.113,2.113,0,0,1,1.7.31,1.793,1.793,0,0,1,.8,1.281.647.647,0,0,1-.568.714.644.644,0,0,1-.714-.567.548.548,0,0,0-.248-.361.839.839,0,0,0-.645-.129,1.407,1.407,0,0,0-.906,1.135,2.42,2.42,0,0,0,1.683,2.571,3.1,3.1,0,0,0,3.164-1.083c1.434-1.788.988-4.669-.329-6.242a7.627,7.627,0,0,0-5.8-2.442h-.147a.65.65,0,0,1-.641-.645.645.645,0,0,1,.641-.648h.147a7.636,7.636,0,0,0,5.8-2.449c1.316-1.567,1.763-4.449.328-6.239a3.106,3.106,0,0,0-3.163-1.087,2.424,2.424,0,0,0-1.683,2.577,1.411,1.411,0,0,0,.905,1.131.829.829,0,0,0,.646-.129.537.537,0,0,0,.248-.359.639.639,0,0,1,.714-.567.644.644,0,0,1,.568.714,1.791,1.791,0,0,1-.8,1.277,2.109,2.109,0,0,1-1.7.313,2.66,2.66,0,0,1-1.847-2.143,3.679,3.679,0,0,1,2.581-4.047,4.378,4.378,0,0,1,4.541,1.515c1.89,2.358,1.291,5.924-.347,7.875a8,8,0,0,1-3.278,2.267,7.979,7.979,0,0,1,3.278,2.261c1.638,1.952,2.237,5.511.347,7.876a4.5,4.5,0,0,1-3.449,1.668" transform="translate(138.176 1132)" fill="#40ada7"/><path d="M638.082-159.745a.626.626,0,0,1-.5-.241,23.545,23.545,0,0,0-6.925-5.528.65.65,0,0,1-.362-.576.645.645,0,0,1,.362-.583,21.68,21.68,0,0,0,6.859-5.783.646.646,0,0,1,.9-.136.645.645,0,0,1,.135.9,23.278,23.278,0,0,1-6.246,5.591,25.07,25.07,0,0,1,6.278,5.3.64.64,0,0,1-.1.9.607.607,0,0,1-.4.146" transform="translate(203.134 1129.143)" fill="#40ada7"/><path d="M610.161-168.769a30.014,30.014,0,0,1,15.024,9.337c1.439-1.934,5.927-7.411,11.875-9.277-5.956-1.94-10.45-7.641-11.885-9.647A31.633,31.633,0,0,1,610.161-168.769Zm15.079,11.014a.628.628,0,0,1-.486-.224c-8.844-10.154-18.675-10.068-18.772-10.068a.644.644,0,0,1-.658-.636.643.643,0,0,1,.63-.657h0c.1,0,9.972-.343,18.8-10.483a.657.657,0,0,1,.531-.219.644.644,0,0,1,.5.293c.067.1,6.835,10.409,15.271,10.409a.645.645,0,0,1,.645.648.647.647,0,0,1-.645.645c-8.442,0-15.209,9.9-15.277,10.008a.645.645,0,0,1-.5.284h-.04" transform="translate(212.002 1131.745)" fill="#40ada7"/><path d="M716.649-162.152H660.375a.647.647,0,0,1-.645-.645.645.645,0,0,1,.645-.648h56.273a.645.645,0,0,1,.645.648.647.647,0,0,1-.645.645" transform="translate(192.679 1125.85)" fill="#40ada7"/><path d="M673.322-157.142a4.5,4.5,0,0,1-3.449-1.668c-1.89-2.364-1.291-5.924.347-7.876a7.974,7.974,0,0,1,3.278-2.261,8,8,0,0,1-3.278-2.267c-1.638-1.951-2.237-5.516-.347-7.874a4.373,4.373,0,0,1,4.54-1.516A3.68,3.68,0,0,1,677-176.556a2.66,2.66,0,0,1-1.847,2.143,2.113,2.113,0,0,1-1.7-.313,1.791,1.791,0,0,1-.8-1.277.644.644,0,0,1,.568-.714.643.643,0,0,1,.714.567.537.537,0,0,0,.248.359.826.826,0,0,0,.645.129,1.41,1.41,0,0,0,.906-1.13,2.425,2.425,0,0,0-1.683-2.578,3.107,3.107,0,0,0-3.164,1.088c-1.434,1.789-.987,4.67.329,6.238a7.639,7.639,0,0,0,5.8,2.449h.147a.645.645,0,0,1,.641.648.65.65,0,0,1-.641.645h-.147a7.625,7.625,0,0,0-5.8,2.442c-1.317,1.573-1.763,4.454-.329,6.242a3.1,3.1,0,0,0,3.164,1.083,2.421,2.421,0,0,0,1.683-2.571,1.407,1.407,0,0,0-.906-1.135.839.839,0,0,0-.645.129.547.547,0,0,0-.248.361.644.644,0,0,1-.714.567.647.647,0,0,1-.568-.714,1.794,1.794,0,0,1,.8-1.281,2.114,2.114,0,0,1,1.7-.31A2.656,2.656,0,0,1,677-161.346a3.683,3.683,0,0,1-2.581,4.05,3.9,3.9,0,0,1-1.092.155" transform="translate(189.493 1132)" fill="#40ada7"/></g></svg>