<svg xmlns="http://www.w3.org/2000/svg" width="378.301" height="73.314" viewBox="0 0 378.301 73.314"><g transform="translate(-1124.608 451.026)"><path d="M26.091,0H330.838c6.571,0,7.882,1.968,7.882,9.743,4.618-1.259,9.064-1.827,11.981,0,2.44,1.519,3.323,5.464,4.333,8.285.291.8,1.894,1.61,1.894,2.667v19.04c0,3.2-3.161,6.306-4.953,9.266-1.664,2.754-9.488-.538-12.363,1.53-1.484,1.069,0,5.111-.893,7.265-.948,2.285-4.338,2.635-7.882,2.635H26.091c-3.728,0-5.87-.376-7.566-3.509-.5-.937.224-5.135-1.077-5.816-4.464-.169-7.717,1.306-10.771,0C2.624,49.378,0,44.134,0,39.735V20.7C0,13.986,7.755,5.654,17.448,9.531,17.879,1.561,20.14,0,26.091,0Z" transform="translate(1135.553 -444.578)" fill="#40ada7"/><path d="M1148.039-379.711h331.5v-8.12c0-.552.61-1,1.346-1h12.693a52.44,52.44,0,0,0,0-51.075h-12.693c-.736,0-1.346-.448-1.346-1v-8.12h-331.5v8.12c0,.552-.6,1-1.347,1H1134a52.874,52.874,0,0,0-6.695,25.537A52.866,52.866,0,0,0,1134-388.831h12.7c.743,0,1.347.448,1.347,1Zm332.845,2H1146.693c-.743,0-1.347-.448-1.347-1v-8.12h-12.253a1.411,1.411,0,0,1-1.242-.615,54.575,54.575,0,0,1-7.243-26.923,54.57,54.57,0,0,1,7.243-26.921,1.409,1.409,0,0,1,1.242-.616h12.253v-8.12c0-.552.6-1,1.347-1h334.192c.736,0,1.347.448,1.347,1v8.12h12.245a1.429,1.429,0,0,1,1.257.616,54.08,54.08,0,0,1,0,53.842,1.429,1.429,0,0,1-1.257.616h-12.245v8.12c0,.552-.61,1-1.347,1" transform="translate(0)" fill="#233d3c"/><path d="M1152.622-386.476h317.441v-7.344c0-.552.61-1,1.347-1h11.813a40.383,40.383,0,0,0,5.135-19.548,40.391,40.391,0,0,0-5.135-19.548H1471.41c-.736,0-1.347-.448-1.347-1v-7.343H1152.622v7.343c0,.552-.6,1-1.347,1h-11.806a40.429,40.429,0,0,0-5.135,19.548,40.424,40.424,0,0,0,5.135,19.548h11.806c.743,0,1.347.448,1.347,1Zm318.788,2H1151.275c-.743,0-1.347-.448-1.347-1v-7.344h-11.361a1.417,1.417,0,0,1-1.242-.612,42.153,42.153,0,0,1-5.684-20.936,42.143,42.143,0,0,1,5.684-20.936,1.417,1.417,0,0,1,1.242-.612h11.361v-7.343c0-.552.6-1,1.347-1H1471.41c.754,0,1.346.448,1.346,1v7.343h11.365a1.4,1.4,0,0,1,1.239.612,42.17,42.17,0,0,1,5.691,20.936,42.162,42.162,0,0,1-5.691,20.936,1.4,1.4,0,0,1-1.239.612h-11.365v7.344c0,.552-.592,1-1.346,1" transform="translate(2.437)" fill="#233d3c"/></g></svg>