<svg xmlns="http://www.w3.org/2000/svg" width="513.874" height="780.228" viewBox="0 0 513.874 780.228">
  <g id="Group_250" data-name="Group 250" transform="translate(-453.967 -88.028)">
    <path id="BackgroundAlb" d="M-1.652,79.552,7.311,53.487,28.445,40.908l33.044-7.281,77.569-1.4,44.712-7.013L204.5,12.33l9.523-8.963,7.843,8.963,24.648,12.884,40.144,6.516H364.2l47.39,12.063,10.258,12.791,9.522,18.486V102.52l-2.24,260.488,16.806,33.611-16.806,26.889v117.64L431.934,698l-5.6,22.968-19.315,19.5-48.385,7.954H283.4l-30.17,5.4-26.889,10.193-12.324,15.209L204.6,764.019l-25.483-10.193-30.943-5.1H97.211L43.7,743.268l-29.1-7.175L-1.652,710.885l-2.8-288.5-8.4-26.889,8.4-25.769,2.8-96.352Z" transform="translate(496.804 88.027)" fill="#fff"/>
    <g id="RamaMihaita" transform="translate(-449.012 1119.367)">
      <path id="path688" d="M1063.959-895.444a89.445,89.445,0,0,0,20.359,1.179c2.185-.122,4.671-.347,6.6-1.464,1.475-.859,2.8-2.608,2.451-4.283-.482-2.318-3.909-3.519-7.1-3.427C1078.17-903.338,1070.6-899.662,1063.959-895.444Zm-78.526-8c-3.11,0-6.417,1.158-6.88,3.427-.341,1.675.971,3.427,2.442,4.294,1.911,1.109,4.408,1.331,6.6,1.453a88.859,88.859,0,0,0,20.375-1.171c-6.642-4.221-14.222-7.9-22.33-8C985.572-903.441,985.5-903.441,985.434-903.441Zm32.55,9.93.794.567c5.484,3.912,11.148,7.954,17.179,10.643,6.034-2.705,11.692-6.742,17.168-10.651l.786-.556a99.951,99.951,0,0,1-17.955-6.832,100.63,100.63,0,0,1-17.974,6.829Zm17.976,15.46a2.023,2.023,0,0,1-.794-.163c-6.739-2.855-12.845-7.208-18.749-11.421l-3.665-2.594a93.438,93.438,0,0,1-25.391,2.022,18.6,18.6,0,0,1-8.415-2c-3.231-1.9-5.026-5.444-4.378-8.618.962-4.725,6.3-6.785,11.128-6.677,10.567.133,20,5.509,27.9,10.917a96.656,96.656,0,0,0,21.446-7.84,2.036,2.036,0,0,1,1.835,0,95.764,95.764,0,0,0,21.435,7.84c7.9-5.408,17.337-10.787,27.893-10.92,4.755-.062,10.153,1.949,11.139,6.669.653,3.191-1.152,6.737-4.389,8.624a18.6,18.6,0,0,1-8.406,2.009,94.4,94.4,0,0,1-25.4-2.031l-3.662,2.594c-5.9,4.2-11.991,8.553-18.733,11.427a2.035,2.035,0,0,1-.8.163" transform="translate(123.959 581.061)" fill="#40ada7"/>
      <path id="path690" d="M1047.086-887.514a59.674,59.674,0,0,0,11.931.518,9.724,9.724,0,0,0,4.186-.906,2.427,2.427,0,0,0,1.35-2.212c-.252-1.209-2.4-1.83-4.167-1.8-4.747.06-9.25,2-13.3,4.4Zm-55.127-4.4c-1.8,0-3.79.618-4.028,1.8a2.432,2.432,0,0,0,1.347,2.218,9.689,9.689,0,0,0,4.186.9,59.178,59.178,0,0,0,11.936-.512c-4.048-2.4-8.556-4.345-13.311-4.405Zm23.393,6.4a61.105,61.105,0,0,1,10.768,12.251,53.831,53.831,0,0,1,10.963-12.262,68.486,68.486,0,0,1-10.844-4.207A69.261,69.261,0,0,1,1015.352-885.521Zm10.89,18.662a2.03,2.03,0,0,1-1.849-1.187c-2.4-5.259-9.391-12.945-13.8-16.052l-.236-.165a64.189,64.189,0,0,1-17.128,1.326,13.253,13.253,0,0,1-6-1.445,6.4,6.4,0,0,1-3.28-6.544c.729-3.573,4.69-5.116,8.2-5.056,7.235.092,13.661,3.69,19.053,7.36a65,65,0,0,0,14.127-5.2,2.027,2.027,0,0,1,1.835,0,64.467,64.467,0,0,0,14.119,5.2c5.392-3.671,11.82-7.271,19.05-7.363,3.446-.081,7.458,1.478,8.206,5.048a6.387,6.387,0,0,1-3.289,6.55,13.2,13.2,0,0,1-6,1.448,64.791,64.791,0,0,1-17.131-1.328l-.255.174c-4.424,3.118-11.858,10.567-13.7,15.87a2.032,2.032,0,0,1-1.824,1.361c-.033,0-.062,0-.095,0" transform="translate(133.677 592.966)" fill="#40ada7"/>
      <path id="path696" d="M1353.636-845.81c-1.395,0-2.526-64.445-2.526-65.839l0-77.19c.027-11.492.057-23.375-5.787-33.479-5.894-10.192-16.77-17.17-32.317-20.741-23.587-5.416-48.784-5-73.139-4.594-6.484.108-12.934.216-19.316.216-56.9,0-77.315-19.377-83.493-27.784-6.18,8.407-26.595,27.784-83.492,27.784-6.383,0-12.836-.108-19.316-.216-24.368-.4-49.555-.822-73.139,4.594-15.55,3.57-26.423,10.549-32.317,20.741-5.844,10.1-5.817,21.987-5.787,33.479l0,77.19c0,1.395-1.088,66.382-2.482,66.382s-2.57-64.988-2.57-66.382l0-77.18c-.031-12.159-.061-24.735,6.463-36.018,6.625-11.455,18.592-19.239,35.561-23.136,24.187-5.554,49.687-5.13,74.351-4.719,6.457.1,12.88.212,19.235.212,67.844,0,81.054-28.251,81.179-28.538a2.633,2.633,0,0,1,4.628,0c.121.273,13.762,28.538,81.178,28.538,6.356,0,12.779-.108,19.235-.212,24.651-.414,50.161-.835,74.351,4.719,16.969,3.9,28.936,11.681,35.561,23.136,6.524,11.283,6.493,23.86,6.463,36.018l0,77.18c0,1.395-1.132,65.839-2.526,65.839" transform="translate(22.854 51.066)" fill="#1e1e1e"/>
      <rect id="Rectangle_71" data-name="Rectangle 71" width="16" height="16" transform="translate(1376.49 -502.375) rotate(45)" fill="#a5f5f2"/>
      <rect id="Rectangle_72" data-name="Rectangle 72" width="16" height="16" transform="translate(1376.49 -791.811) rotate(45)" fill="#a5f5f2"/>
      <rect id="Rectangle_70" data-name="Rectangle 70" width="16" height="16" transform="translate(943.341 -502.375) rotate(45)" fill="#a5f5f2"/>
      <rect id="Rectangle_69" data-name="Rectangle 69" width="16" height="16" transform="translate(943.341 -791.811) rotate(45)" fill="#a5f5f2"/>
      <path id="path698" d="M1137.065-755.662a.037.037,0,0,1-.017,0,2.524,2.524,0,0,1-2.3-1.5c-.121-.269-13.762-28.538-81.178-28.538-6.356,0-12.779.108-19.235.216-24.658.411-50.165.832-74.351-4.719-16.969-3.9-28.936-11.681-35.561-23.139-6.524-11.283-6.494-23.856-6.463-36.019l0-97.4c0-1.395.812-35.881,2.207-35.881s2.846,34.486,2.846,35.881l0,97.416c-.03,11.492-.057,23.375,5.787,33.476,5.894,10.2,16.77,17.174,32.317,20.744,23.584,5.413,48.777,4.995,73.135,4.591,6.484-.108,12.934-.215,19.32-.215,56.9,0,77.312,19.376,83.492,27.784,6.177-8.407,26.594-27.784,83.492-27.784,6.386,0,12.836.108,19.32.215,24.358.4,49.548.822,73.135-4.591,15.547-3.57,26.423-10.549,32.317-20.744,5.844-10.1,5.813-21.984,5.786-33.476l0-97.417c0-1.394,1.434-35.1,2.828-35.1s2.224,33.7,2.224,35.1l0,97.4c.03,12.162.061,24.736-6.463,36.019-6.625,11.458-18.592,19.242-35.561,23.139-24.183,5.554-49.68,5.133-74.352,4.719-6.457-.108-12.88-.216-19.235-.216-67.416,0-81.057,28.269-81.185,28.555a2.551,2.551,0,0,1-2.3,1.489" transform="translate(22.854 504.551)" fill="#1e1e1e"/>
      <path id="path700" d="M925.747-928.682q-1,1.551-1.98,3.119c-.515.825-1.054,1.64-1.593,2.452-2.556,3.856-4.762,7.184-3.87,11.135a6.838,6.838,0,0,0,3.284,4.5,5.281,5.281,0,0,0,4.456.293c3.436-1.276,4.082-7.511,3.439-11.32a30,30,0,0,0-3.735-10.179ZM924.1-901.771a10.3,10.3,0,0,1-4.924-1.263,11.8,11.8,0,0,1-5.8-7.827c-1.371-6.059,1.8-10.832,4.587-15.042.512-.771,1.027-1.546,1.519-2.334.984-1.58,1.991-3.143,3-4.7a12.861,12.861,0,0,0-5.857-3.546c-4.752-1.209-7.39.909-8.276,3.3-.569,1.539-.434,3.449.923,4.123a2.524,2.524,0,0,1,1.148,3.382,2.534,2.534,0,0,1-3.385,1.145c-3.564-1.762-5.005-6.137-3.426-10.4,1.7-4.584,6.773-8.353,14.264-6.44a17.435,17.435,0,0,1,7.42,4.149l.205-.316c1.179-1.8,2.368-3.314,3.523-4.786,6.063-7.733,11.788-15.035,11.788-62.037,0-1.395,1.141-64.206,2.536-64.206s2.516,62.811,2.516,64.206c0,48.747-6.251,56.716-12.866,65.153-1.135,1.452-2.21,2.823-3.271,4.439l-.977,1.489a34.663,34.663,0,0,1,5.712,13.941c.919,5.453-.094,14.453-6.662,16.9a10.63,10.63,0,0,1-3.7.677" transform="translate(0 301.619)" fill="#1e1e1e"/>
      <path id="path702" d="M924.107-992.89a5.317,5.317,0,0,0-2.519.65,6.839,6.839,0,0,0-3.284,4.5c-.892,3.954,1.313,7.282,3.87,11.135.539.812,1.078,1.626,1.593,2.455q.98,1.566,1.98,3.115a29.992,29.992,0,0,0,3.735-10.178c.644-3.809,0-10.041-3.439-11.317A5.494,5.494,0,0,0,924.107-992.89ZM943.343-831c-1.394,0-2.526-62.955-2.526-64.353,0-47-5.726-54.3-11.789-62.034-1.155-1.472-2.344-2.991-3.523-4.786l-.206-.32a17.439,17.439,0,0,1-7.42,4.153c-7.5,1.92-12.566-1.852-14.264-6.44-1.58-4.271-.138-8.646,3.426-10.407a2.53,2.53,0,0,1,3.385,1.148,2.524,2.524,0,0,1-1.148,3.382c-1.357.674-1.492,2.583-.923,4.122.882,2.392,3.526,4.507,8.275,3.3a12.924,12.924,0,0,0,5.857-3.546c-1.014-1.556-2.021-3.122-3-4.7-.492-.788-1.007-1.563-1.519-2.334-2.792-4.21-5.958-8.983-4.588-15.045a11.785,11.785,0,0,1,5.8-7.824,10.3,10.3,0,0,1,8.626-.586c6.568,2.439,7.581,11.442,6.662,16.895a34.662,34.662,0,0,1-5.712,13.941l.977,1.489c1.061,1.616,2.135,2.991,3.271,4.439,6.615,8.441,12.866,16.41,12.866,65.153,0,1.4-1.131,64.353-2.526,64.353" transform="translate(0 326.392)" fill="#1e1e1e"/>
      <path id="path704" d="M919.6-1002.022l7.689,7.689,7.686-7.689-7.686-7.686Zm7.689,13.786a2.519,2.519,0,0,1-1.789-.741l-11.26-11.256a2.543,2.543,0,0,1-.741-1.788,2.542,2.542,0,0,1,.741-1.785l11.26-11.26a2.529,2.529,0,0,1,1.789-.741h0a2.527,2.527,0,0,1,1.785.741l11.26,11.26a2.526,2.526,0,0,1,0,3.573l-11.26,11.256a2.5,2.5,0,0,1-1.785.741" transform="translate(16.054 221.526)" fill="#1e1e1e"/>
      <path id="path706" d="M919.6-944.544l7.689,7.689,7.686-7.689-7.686-7.686Zm7.689,13.789a2.544,2.544,0,0,1-1.789-.741l-11.26-11.26a2.544,2.544,0,0,1-.741-1.789,2.542,2.542,0,0,1,.741-1.785l11.26-11.26a2.526,2.526,0,0,1,3.573,0l11.26,11.26a2.527,2.527,0,0,1,0,3.574l-11.26,11.26a2.541,2.541,0,0,1-1.785.741" transform="translate(16.054 453.335)" fill="#1e1e1e"/>
      <path id="path708" d="M1109.545-928.682a30.1,30.1,0,0,0-3.735,10.178c-.643,3.809.006,10.044,3.442,11.32a5.255,5.255,0,0,0,4.453-.293,6.837,6.837,0,0,0,3.287-4.5c.892-3.951-1.314-7.279-3.874-11.135-.535-.812-1.078-1.627-1.593-2.452q-.975-1.566-1.981-3.119Zm1.644,26.911a10.612,10.612,0,0,1-3.7-.677c-6.568-2.445-7.582-11.445-6.662-16.9a34.617,34.617,0,0,1,5.712-13.941l-.977-1.489c-1.061-1.616-2.135-2.984-3.271-4.436-6.618-8.44-12.866-16.41-12.866-65.156,0-1.394,1.507-63.83,2.9-63.83s2.151,62.436,2.151,63.83c0,47,5.726,54.308,11.788,62.037,1.155,1.472,2.344,2.991,3.523,4.786l.205.316a17.429,17.429,0,0,1,7.42-4.149c7.5-1.923,12.566,1.852,14.263,6.44,1.58,4.267.138,8.646-3.428,10.4a2.529,2.529,0,0,1-3.382-1.145,2.519,2.519,0,0,1,1.146-3.382c1.361-.674,1.5-2.583.926-4.123-.883-2.392-3.52-4.523-8.275-3.3a12.865,12.865,0,0,0-5.857,3.547c1.014,1.556,2.021,3.119,3,4.7.492.788,1.007,1.563,1.519,2.334,2.792,4.213,5.955,8.983,4.587,15.042a11.787,11.787,0,0,1-5.807,7.828,10.3,10.3,0,0,1-4.924,1.263" transform="translate(284.537 301.62)" fill="#1e1e1e"/>
      <path id="path710" d="M1111.185-992.892a5.509,5.509,0,0,0-1.937.361c-3.432,1.276-4.082,7.508-3.439,11.317a30.072,30.072,0,0,0,3.735,10.178q1.006-1.551,1.98-3.115c.515-.829,1.058-1.644,1.594-2.455,2.559-3.853,4.766-7.181,3.873-11.135a6.842,6.842,0,0,0-3.287-4.5A5.305,5.305,0,0,0,1111.185-992.892Zm-19.232,161.774c-1.395,0-2.526-62.835-2.526-64.233,0-48.744,6.248-56.716,12.866-65.153,1.135-1.452,2.209-2.822,3.27-4.439l.977-1.489a34.624,34.624,0,0,1-5.712-13.941c-.919-5.453.094-14.456,6.663-16.895a10.322,10.322,0,0,1,8.622.586,11.789,11.789,0,0,1,5.806,7.824c1.367,6.063-1.8,10.832-4.587,15.045-.512.771-1.027,1.546-1.519,2.334-.984,1.576-1.991,3.143-3,4.7a12.922,12.922,0,0,0,5.857,3.546c4.756,1.213,7.393-.909,8.275-3.3.569-1.539.435-3.449-.926-4.122a2.521,2.521,0,0,1-1.145-3.382,2.524,2.524,0,0,1,3.382-1.148c3.567,1.761,5.009,6.137,3.429,10.4-1.7,4.588-6.767,8.366-14.264,6.443a17.47,17.47,0,0,1-7.42-4.149l-.206.313c-1.179,1.8-2.368,3.318-3.523,4.79-6.063,7.73-11.789,15.032-11.789,62.034,0,1.4-1.132,64.233-2.526,64.233" transform="translate(284.537 326.394)" fill="#1e1e1e"/>
      <path id="path712" d="M1091.068-1002.041l7.686,7.689,7.686-7.689-7.686-7.686Zm7.686,13.786a2.505,2.505,0,0,1-1.785-.741l-11.26-11.256a2.527,2.527,0,0,1,0-3.573l11.26-11.26a2.6,2.6,0,0,1,3.57,0l11.26,11.26a2.526,2.526,0,0,1,.741,1.785,2.527,2.527,0,0,1-.741,1.788L1100.54-989a2.5,2.5,0,0,1-1.785.741" transform="translate(277.735 221.545)" fill="#1e1e1e"/>
      <path id="path714" d="M1091.068-944.544l7.686,7.689,7.686-7.689-7.686-7.686Zm7.686,13.789h0a2.53,2.53,0,0,1-1.785-.741l-11.26-11.26a2.527,2.527,0,0,1,0-3.574l11.26-11.26a2.522,2.522,0,0,1,3.57,0l11.26,11.26a2.526,2.526,0,0,1,.741,1.785,2.527,2.527,0,0,1-.741,1.789l-11.26,11.26a2.535,2.535,0,0,1-1.785.741" transform="translate(277.735 453.335)" fill="#1e1e1e"/>
      <path id="path688-2" data-name="path688" d="M1063.959-890.116a89.445,89.445,0,0,1,20.359-1.179c2.185.122,4.671.347,6.6,1.464,1.475.859,2.8,2.608,2.451,4.283-.482,2.318-3.909,3.519-7.1,3.427C1078.17-882.222,1070.6-885.9,1063.959-890.116Zm-78.526,8c-3.11,0-6.417-1.158-6.88-3.427-.341-1.675.971-3.427,2.442-4.294,1.911-1.109,4.408-1.331,6.6-1.453a88.86,88.86,0,0,1,20.375,1.171c-6.642,4.221-14.222,7.9-22.33,8C985.572-882.118,985.5-882.118,985.434-882.118Zm32.55-9.93.794-.567c5.484-3.912,11.148-7.954,17.179-10.643,6.034,2.705,11.692,6.742,17.168,10.651l.786.556a99.951,99.951,0,0,0-17.955,6.832,100.63,100.63,0,0,0-17.974-6.829Zm17.976-15.46a2.023,2.023,0,0,0-.794.163c-6.739,2.855-12.845,7.208-18.749,11.421l-3.665,2.594a93.438,93.438,0,0,0-25.391-2.022,18.6,18.6,0,0,0-8.415,2c-3.231,1.9-5.026,5.444-4.378,8.618.962,4.725,6.3,6.785,11.128,6.677,10.567-.133,20-5.509,27.9-10.917a96.654,96.654,0,0,1,21.446,7.84,2.036,2.036,0,0,0,1.835,0,95.761,95.761,0,0,1,21.435-7.84c7.9,5.408,17.337,10.787,27.893,10.92,4.755.062,10.153-1.949,11.139-6.669.653-3.191-1.152-6.737-4.389-8.624a18.6,18.6,0,0,0-8.406-2.009,94.4,94.4,0,0,0-25.4,2.031l-3.662-2.594c-5.9-4.2-11.991-8.553-18.733-11.427a2.035,2.035,0,0,0-.8-.163" transform="translate(123.959 -81.842)" fill="#40ada7"/>
      <path id="path690-2" data-name="path690" d="M1047.086-875.332a59.674,59.674,0,0,1,11.931-.518,9.724,9.724,0,0,1,4.186.906,2.427,2.427,0,0,1,1.35,2.212c-.252,1.209-2.4,1.83-4.167,1.8-4.747-.06-9.25-2-13.3-4.4Zm-55.127,4.4c-1.8,0-3.79-.618-4.028-1.8a2.432,2.432,0,0,1,1.347-2.218,9.689,9.689,0,0,1,4.186-.9,59.178,59.178,0,0,1,11.936.512c-4.048,2.4-8.556,4.345-13.311,4.405Zm23.393-6.4a61.1,61.1,0,0,0,10.768-12.251,53.83,53.83,0,0,0,10.963,12.262,68.486,68.486,0,0,0-10.844,4.207A69.261,69.261,0,0,0,1015.352-877.324Zm10.89-18.662a2.03,2.03,0,0,0-1.849,1.187c-2.4,5.259-9.391,12.945-13.8,16.052l-.236.165a64.189,64.189,0,0,0-17.128-1.326,13.253,13.253,0,0,0-6,1.445,6.4,6.4,0,0,0-3.28,6.544c.729,3.573,4.69,5.116,8.2,5.056,7.235-.092,13.661-3.69,19.053-7.36a65,65,0,0,1,14.127,5.2,2.027,2.027,0,0,0,1.835,0,64.467,64.467,0,0,1,14.119-5.2c5.392,3.671,11.82,7.271,19.05,7.363,3.446.081,7.458-1.478,8.206-5.048a6.387,6.387,0,0,0-3.289-6.55,13.2,13.2,0,0,0-6-1.448,64.791,64.791,0,0,0-17.131,1.328l-.255-.174c-4.424-3.118-11.858-10.567-13.7-15.87a2.032,2.032,0,0,0-1.824-1.361c-.033,0-.062,0-.095,0" transform="translate(133.676 -116.462)" fill="#40ada7"/>
    </g>
  </g>
</svg>
