<svg xmlns="http://www.w3.org/2000/svg" width="285.346" height="36.629" viewBox="0 0 285.346 36.629">
  <g id="Sageata_Mihai" data-name="Sageata Mihai" transform="translate(0 0)">
    <path id="path958" d="M853.625-152.6a.941.941,0,0,1-.628-.227.992.992,0,0,1-.149-1.4,38.881,38.881,0,0,1,9.736-8.227,36.1,36.1,0,0,1-9.687-8.671,1,1,0,0,1,.209-1.4,1,1,0,0,1,1.4.208,33.72,33.72,0,0,0,10.636,8.969,1,1,0,0,1,.561.9,1.007,1.007,0,0,1-.561.893,36.513,36.513,0,0,0-10.739,8.573.972.972,0,0,1-.777.373" transform="translate(-605.325 180.762)" fill="#1e1e1e"/>
    <path id="path960" d="M841.458-162.466c9.223,2.893,16.183,11.387,18.415,14.387,8.547-9.4,17.464-13.053,23.3-14.48-5.821-1.584-14.735-5.455-23.284-14.867C857.663-174.316,850.694-165.474,841.458-162.466Zm18.329,16.987h-.063a1,1,0,0,1-.768-.44c-.1-.16-10.6-15.52-23.691-15.52a1,1,0,0,1-1-1,1,1,0,0,1,1-1.005c13.1,0,23.577-15.981,23.681-16.143a1,1,0,0,1,.769-.455,1,1,0,0,1,.824.34c13.689,15.725,29,16.253,29.152,16.257h0a1,1,0,0,1,.977,1.019,1.042,1.042,0,0,1-1.011.987h-.031c-.691,0-15.668.2-29.089,15.613a.974.974,0,0,1-.753.347" transform="translate(-605.325 180.762)" fill="#1e1e1e"/>
    <path id="path962" d="M835.266-161.44H748a1,1,0,0,1-1-1,1,1,0,0,1,1-1.005h87.268a1,1,0,0,1,1,1.005,1,1,0,0,1-1,1" transform="translate(-605.325 180.762)" fill="#1e1e1e"/>
    <path id="path964" d="M820.129-144.133a6.042,6.042,0,0,1-1.693-.24,5.712,5.712,0,0,1-4-6.28,4.118,4.118,0,0,1,2.864-3.32,3.277,3.277,0,0,1,2.637.48,2.781,2.781,0,0,1,1.241,1.987,1,1,0,0,1-.88,1.107,1,1,0,0,1-1.107-.88.849.849,0,0,0-.384-.56,1.3,1.3,0,0,0-1-.2,2.182,2.182,0,0,0-1.405,1.76,3.754,3.754,0,0,0,2.611,3.987,4.81,4.81,0,0,0,4.907-1.68c2.224-2.773,1.532-7.24-.511-9.68a11.827,11.827,0,0,0-8.995-3.787h-.228a1.009,1.009,0,0,1-.993-1,1,1,0,0,1,.993-1.005h.228a11.841,11.841,0,0,0,8.995-3.8c2.041-2.431,2.735-6.9.509-9.675a4.817,4.817,0,0,0-4.905-1.685,3.76,3.76,0,0,0-2.611,4,2.188,2.188,0,0,0,1.4,1.753,1.286,1.286,0,0,0,1-.2.833.833,0,0,0,.384-.556.991.991,0,0,1,1.107-.88,1,1,0,0,1,.88,1.107,2.776,2.776,0,0,1-1.24,1.98,3.271,3.271,0,0,1-2.639.485,4.125,4.125,0,0,1-2.864-3.324,5.706,5.706,0,0,1,4-6.276,6.789,6.789,0,0,1,7.041,2.349c2.931,3.657,2,9.187-.539,12.212a12.41,12.41,0,0,1-5.084,3.516,12.374,12.374,0,0,1,5.084,3.507c2.54,3.027,3.469,8.547.539,12.213a6.979,6.979,0,0,1-5.348,2.587" transform="translate(-605.325 180.762)" fill="#1e1e1e"/>
    <path id="path966" d="M642.372-152.6a.97.97,0,0,1-.777-.373,36.512,36.512,0,0,0-10.739-8.573,1.007,1.007,0,0,1-.561-.893,1,1,0,0,1,.561-.9,33.619,33.619,0,0,0,10.636-8.968,1,1,0,0,1,1.4-.211,1,1,0,0,1,.209,1.4,36.1,36.1,0,0,1-9.687,8.671,38.882,38.882,0,0,1,9.736,8.227.992.992,0,0,1-.149,1.4.941.941,0,0,1-.628.227" transform="translate(-605.325 180.762)" fill="#1e1e1e"/>
    <path id="path968" d="M612.825-162.56c5.835,1.427,14.752,5.08,23.3,14.48,2.232-3,9.192-11.493,18.415-14.387-9.236-3.008-16.205-11.849-18.431-14.96C627.56-168.014,618.647-164.144,612.825-162.56Zm23.384,17.08a.974.974,0,0,1-.753-.347c-13.715-15.747-28.961-15.613-29.111-15.613a1,1,0,0,1-1.02-.987,1,1,0,0,1,.977-1.019h0c.153,0,15.464-.532,29.153-16.257a1.02,1.02,0,0,1,.824-.34,1,1,0,0,1,.769.455c.1.161,10.6,16.143,23.681,16.143a1,1,0,0,1,1,1.005,1,1,0,0,1-1,1c-13.092,0-23.587,15.36-23.691,15.52a1,1,0,0,1-.768.44h-.063" transform="translate(-605.325 180.762)" fill="#1e1e1e"/>
    <path id="path970" d="M748-161.44H660.73a1,1,0,0,1-1-1,1,1,0,0,1,1-1.005H748a1,1,0,0,1,1,1.005,1,1,0,0,1-1,1" transform="translate(-605.325 180.762)" fill="#1e1e1e"/>
    <path id="path972" d="M675.868-144.133a6.978,6.978,0,0,1-5.348-2.587c-2.931-3.667-2-9.187.539-12.213a12.367,12.367,0,0,1,5.084-3.507,12.409,12.409,0,0,1-5.084-3.516c-2.54-3.025-3.469-8.555-.539-12.211a6.782,6.782,0,0,1,7.041-2.351,5.706,5.706,0,0,1,4,6.277,4.125,4.125,0,0,1-2.864,3.323,3.277,3.277,0,0,1-2.639-.485,2.777,2.777,0,0,1-1.24-1.98,1,1,0,0,1,.88-1.107,1,1,0,0,1,1.107.88.833.833,0,0,0,.384.556,1.281,1.281,0,0,0,1,.2A2.187,2.187,0,0,0,679.6-174.6a3.761,3.761,0,0,0-2.611-4,4.818,4.818,0,0,0-4.907,1.687c-2.224,2.775-1.531,7.243.511,9.673a11.846,11.846,0,0,0,8.995,3.8c.076,0,.151,0,.228,0a1,1,0,0,1,.993,1.005,1.009,1.009,0,0,1-.993,1h-.228a11.825,11.825,0,0,0-8.995,3.787c-2.043,2.44-2.735,6.907-.511,9.68a4.811,4.811,0,0,0,4.907,1.68,3.754,3.754,0,0,0,2.611-3.987,2.182,2.182,0,0,0-1.405-1.76,1.3,1.3,0,0,0-1,.2.848.848,0,0,0-.384.56,1,1,0,0,1-1.107.88,1,1,0,0,1-.88-1.107,2.781,2.781,0,0,1,1.241-1.987,3.278,3.278,0,0,1,2.639-.48,4.118,4.118,0,0,1,2.863,3.32,5.712,5.712,0,0,1-4,6.28,6.043,6.043,0,0,1-1.693.24" transform="translate(-605.325 180.762)" fill="#1e1e1e"/>
  </g>
</svg>
