<svg xmlns="http://www.w3.org/2000/svg" width="114.458" height="37.588" viewBox="0 0 114.458 37.588"><g transform="translate(0 0)"><path d="M457.107-328.841c7.851,4.531,15.632,8.319,23.792,8.334h.016c2.577,0,6.241-1.067,8.111-4.072a8.651,8.651,0,0,0,1.031-5.876c-.6-4.406-4.037-6.8-10.218-7.115C471.857-337.959,464.509-334.065,457.107-328.841ZM424.9-326.677a19.323,19.323,0,0,0-8.919,2.037c-1.15.59-4.92,2.833-5.183,6.931a7.514,7.514,0,0,0,3.051,6.4c1.611,1.109,3.647,1.511,6.4,1.261,8.062-.726,15.7-5.59,23.1-11.083-4.444-2.451-11.436-5.541-18.453-5.541Zm56.684,22.159c-11.758,0-25.523-8.695-33.6-13.8-.977-.617-1.876-1.186-2.667-1.67-7.92,5.96-16.125,11.424-24.959,12.22a10.881,10.881,0,0,1-7.294-1.51,9.94,9.94,0,0,1-3.972-8.632c.337-5.278,4.5-7.966,6.275-8.875,10.19-5.231,22.6.127,29.1,3.785.239.135.5.284.767.446q1.527-1.158,3.041-2.323c1.636-1.255,3.283-2.517,4.941-3.748l-.618-.365c-7.893-4.679-16.056-9.517-24.634-10.579-5.6-.692-19.112-.869-23.8,12.394-.2.571-.709.816-1.138.544a1.339,1.339,0,0,1-.4-1.527c5.152-14.57,19.548-14.431,25.5-13.695,8.855,1.1,17.147,6.012,25.167,10.765l1.382.818.439.26c7.866-5.666,16.038-10.315,24.792-9.855,7.09.362,11.071,3.388,11.833,8.993a11.574,11.574,0,0,1-1.4,7.757,11.1,11.1,0,0,1-9.421,4.9H480.9c-8.91-.017-17.265-4.3-25.71-9.245-2.007,1.469-4.022,3.015-6.061,4.577q-.984.756-1.972,1.51c.494.31,1.015.64,1.562.986,11.978,7.564,36.9,23.308,47.452,5.179a.718.718,0,0,1,1.2-.2,1.424,1.424,0,0,1,.147,1.608c-3.96,6.8-9.66,9.277-15.928,9.278" transform="translate(-392.994 342.106)" fill="#a5f5f2"/><path d="M396.8-325.509l2.4,7.365,7.365-2.4-2.4-7.365Zm1.669,9.957a1.144,1.144,0,0,1-1.09-.79l-3.113-9.546a1.143,1.143,0,0,1,.067-.874,1.144,1.144,0,0,1,.666-.57l9.546-3.113a1.141,1.141,0,0,1,1.444.733l3.114,9.544a1.137,1.137,0,0,1-.069.874,1.141,1.141,0,0,1-.666.572l-9.544,3.113a1.111,1.111,0,0,1-.356.057" transform="translate(-394.211 343.801)" fill="#a5f5f2"/><path d="M512.456-325.243l1.826,7.53,7.53-1.828-1.828-7.529Zm.983,10.059a1.147,1.147,0,0,1-1.114-.876l-2.367-9.757a1.149,1.149,0,0,1,.134-.866,1.149,1.149,0,0,1,.709-.516l9.757-2.369a1.152,1.152,0,0,1,1.385.845l2.367,9.755a1.14,1.14,0,0,1-.135.866,1.152,1.152,0,0,1-.709.518l-9.757,2.367a1.1,1.1,0,0,1-.271.032" transform="translate(-409.884 343.933)" fill="#a5f5f2"/></g></svg>